<?xml version="1.0" standalone="no"?>
<!DOCTYPE svg PUBLIC "-//W3C//DTD SVG 20010904//EN"
 "http://www.w3.org/TR/2001/REC-SVG-20010904/DTD/svg10.dtd">
<svg version="1.0" xmlns="http://www.w3.org/2000/svg"
 width="180.000000pt" height="180.000000pt" viewBox="0 0 180.000000 180.000000"
 preserveAspectRatio="xMidYMid meet">
<metadata>
Created by potrace 1.10, written by Peter Selinger 2001-2011
</metadata>
<g transform="translate(0.000000,180.000000) scale(0.100000,-0.100000)"
fill="#000000" stroke="none">
<path d="M328 1789 c-159 -23 -299 -165 -317 -320 -9 -70 -3 -66 28 16 50 134
126 213 253 260 40 15 80 34 88 41 8 8 12 13 10 13 -3 -1 -31 -5 -62 -10z"/>
<path d="M1419 1787 c6 -6 42 -22 80 -37 136 -53 196 -116 262 -273 17 -42 33
-76 34 -75 9 10 -19 139 -38 176 -54 110 -175 198 -288 211 -39 5 -56 4 -50
-2z"/>
<path d="M544 1406 c-18 -14 -19 -31 -19 -506 0 -475 1 -492 19 -506 14 -10
50 -14 122 -14 99 0 103 1 123 26 20 25 21 40 21 215 l0 188 33 25 c42 32 73
33 112 2 l30 -24 5 -197 c6 -244 1 -235 151 -235 146 0 139 -13 139 259 0 136
-4 222 -10 226 -5 3 -10 15 -10 26 0 46 -97 155 -168 189 -26 12 -55 26 -65
32 -10 5 -63 12 -118 15 l-99 6 0 122 c0 114 -1 123 -23 143 -21 20 -34 22
-123 22 -71 0 -106 -4 -120 -14z m228 -172 l-3 -155 38 8 c64 14 165 8 219
-11 103 -38 189 -124 214 -216 5 -19 10 -128 10 -242 l0 -208 -112 0 -113 0 3
177 c4 200 -3 239 -49 277 -24 20 -41 26 -80 26 -42 0 -55 -5 -87 -34 l-37
-34 0 -206 0 -206 -112 0 -113 0 0 490 0 490 113 0 112 0 -3 -156z"/>
<path d="M1023 1405 c-21 -15 -23 -24 -23 -115 0 -132 5 -137 140 -139 95 -2
99 -1 119 25 18 22 21 40 21 113 0 123 -3 125 -132 129 -82 3 -107 0 -125 -13z
m227 -117 l0 -103 -111 1 -111 2 -2 101 -1 101 113 0 112 0 0 -102z"/>
<path d="M1785 381 c-3 -6 -17 -40 -31 -78 -49 -129 -129 -208 -267 -264 l-72
-30 57 5 c151 12 299 160 318 318 6 59 6 66 -5 49z"/>
<path d="M13 323 c7 -64 46 -141 99 -199 51 -55 165 -114 221 -114 50 0 41 10
-38 40 -125 49 -195 117 -246 239 -17 42 -34 78 -37 81 -2 3 -2 -18 1 -47z"/>
</g>
</svg>
